<?xml version="1.0" encoding="UTF-8" standalone="no"?>
<!-- Created with Inkscape (http://www.inkscape.org/) -->

<svg
   width="50mm"
   height="50mm"
   viewBox="0 0 50 49.999994"
   version="1.1"
   id="svg1"
   xml:space="preserve"
   inkscape:version="1.4.3 (0d15f75, 2025-12-25)"
   sodipodi:docname="ear.svg"
   inkscape:export-filename="speak.png"
   inkscape:export-xdpi="96"
   inkscape:export-ydpi="96"
   xmlns:inkscape="http://www.inkscape.org/namespaces/inkscape"
   xmlns:sodipodi="http://sodipodi.sourceforge.net/DTD/sodipodi-0.dtd"
   xmlns="http://www.w3.org/2000/svg"
   xmlns:svg="http://www.w3.org/2000/svg"><sodipodi:namedview
     id="namedview1"
     pagecolor="#ffffff"
     bordercolor="#000000"
     borderopacity="0.25"
     inkscape:showpageshadow="2"
     inkscape:pageopacity="0.0"
     inkscape:pagecheckerboard="0"
     inkscape:deskcolor="#d1d1d1"
     inkscape:document-units="mm"
     showgrid="true"
     inkscape:zoom="0.44097222"
     inkscape:cx="443.33858"
     inkscape:cy="561.25984"
     inkscape:window-width="1366"
     inkscape:window-height="697"
     inkscape:window-x="-8"
     inkscape:window-y="-8"
     inkscape:window-maximized="1"
     inkscape:current-layer="layer1" /><defs
     id="defs1" /><g
     inkscape:label="Capa 1"
     inkscape:groupmode="layer"
     id="layer1"><g
       id="g166"
       transform="matrix(0.81867455,0,0,0.81867455,79.887446,-61.581063)"><path
         style="fill:#f4c14f"
         d="m -77.402714,123.11372 c -3.096689,-1.17979 -4.88012,-3.27322 -6.250067,-7.33646 l -0.810284,-2.40329 -1.727323,-2.14359 c -2.276018,-2.82451 -3.661352,-5.20526 -4.782704,-8.21927 l -0.918749,-2.46945 -0.0034,-4.780792 -0.0034,-4.780797 1.328095,-2.687217 1.328094,-2.687216 1.670517,-1.392218 c 2.228976,-1.857641 4.098697,-2.764895 6.628587,-3.216423 l 2.097485,-0.374353 2.391973,0.506522 c 4.624436,0.979268 7.667249,3.388232 9.092969,7.198811 l 0.730864,1.953409 -0.222644,3.36625 c -0.122454,1.851437 -0.207431,5.276117 -0.188837,7.610404 l 0.03381,4.24415 -0.704174,2.20425 -0.704174,2.20426 0.408554,3.65605 0.408554,3.65606 -0.419823,1.40124 c -0.836141,2.79079 -3.158766,4.56857 -6.353278,4.86291 l -1.651568,0.15218 z m 25.554548,-4.56814 -0.429004,-0.51692 1.590792,-2.04072 c 1.982301,-2.54296 3.56204,-5.64603 4.375321,-8.59442 l 0.624983,-2.26575 -0.01193,-4.05694 -0.01192,-4.056944 -0.661537,-2.293056 c -0.881146,-3.054277 -2.642813,-6.49223 -4.403343,-8.593273 -1.606208,-1.916871 -1.658061,-2.072405 -0.90052,-2.701108 l 0.535784,-0.444661 0.741832,0.666049 c 1.867618,1.676828 4.386896,6.068495 5.658036,9.863227 l 0.818842,2.444488 -0.0036,5.115278 -0.0036,5.11528 -0.820535,2.46944 c -1.995585,6.00582 -5.857954,11.38621 -7.09967,9.89003 z m -4.949054,-5.12447 c 0,-0.38638 0.522817,-1.38743 1.161815,-2.22457 1.5669,-2.05275 2.60821,-4.57968 3.064666,-7.43698 l 0.379049,-2.37276 -0.221682,-1.833677 c -0.441787,-3.654306 -1.682873,-6.839494 -3.511932,-9.013208 l -0.925697,-1.100128 0.119136,-0.618622 c 0.06553,-0.340242 0.382904,-0.669419 0.705287,-0.731504 l 0.586151,-0.112882 1.512863,2.225498 c 0.832074,1.224024 1.891106,3.257373 2.353403,4.518553 l 0.840541,2.293056 0.192444,2.717022 0.192444,2.717022 -0.436074,2.21652 c -0.529844,2.69314 -2.074238,6.19362 -3.560558,8.07025 l -1.100033,1.38891 h -0.675911 -0.675912 z m -4.810953,-4.41184 -0.202699,-0.52822 1.061435,-1.67664 1.061434,-1.67664 0.443195,-2.02847 0.443196,-2.02847 -0.449548,-2.028472 -0.449548,-2.028472 -1.017701,-1.516991 c -1.144979,-1.706713 -1.264298,-2.369839 -0.480532,-2.670598 l 0.537168,-0.206131 0.733551,0.733551 c 0.403453,0.403454 1.153915,1.630165 1.667693,2.726027 l 0.934142,1.992475 -0.0095,3.175001 -0.0095,3.175 -0.988511,1.94028 c -1.526658,2.99657 -2.758085,3.99199 -3.274292,2.64677 z"
         id="path172" /><path
         style="fill:#eab94c"
         d="m -77.402714,123.11372 c -3.096689,-1.17979 -4.88012,-3.27322 -6.250067,-7.33646 l -0.810284,-2.40329 -1.727323,-2.14359 c -2.276018,-2.82451 -3.661352,-5.20526 -4.782704,-8.21927 l -0.918749,-2.46945 -0.0034,-4.780792 -0.0034,-4.780797 1.328095,-2.687217 1.328094,-2.687216 1.670517,-1.392218 c 2.228976,-1.857641 4.098697,-2.764895 6.628587,-3.216423 l 2.097485,-0.374353 2.391973,0.506522 c 4.597858,0.97364 7.667832,3.389791 9.070483,7.138711 l 0.708378,1.893309 v 3.00857 3.00857 l -0.36519,0.682363 c -0.419206,0.783292 -1.144307,0.884792 -1.683089,0.235599 l -0.370782,-0.446764 0.371351,-1.741151 0.371352,-1.741151 -0.415168,-2.310002 -0.415168,-2.310001 -1.241655,-1.706189 -1.241655,-1.706189 -2.335312,-1.092824 -2.335312,-1.092824 -2.666214,0.0064 -2.666214,0.0064 -1.940278,0.990985 c -3.608612,1.843077 -5.640388,4.793386 -6.416037,9.316623 l -0.417355,2.433829 0.569742,3.170827 0.569742,3.170823 1.238592,2.59972 c 0.681225,1.42985 2.034048,3.58318 3.006271,4.78517 1.970018,2.43562 2.825593,3.98181 3.725728,6.73314 1.765143,5.39529 7.953317,7.21647 10.823687,3.18541 l 0.739254,-1.03819 -0.12884,-3.76073 -0.128839,-3.76074 0.663283,-0.13119 0.663283,-0.13118 0.280749,0.45426 c 0.154413,0.24984 0.392031,1.79018 0.528041,3.42296 l 0.247292,2.9687 -0.397424,1.32649 c -0.813226,2.7143 -3.170198,4.49692 -6.330879,4.78814 l -1.651568,0.15218 z m 25.554548,-4.56814 -0.429004,-0.51692 1.590792,-2.04072 c 1.982301,-2.54296 3.56204,-5.64603 4.375321,-8.59442 l 0.624983,-2.26575 -0.01193,-4.05694 -0.01192,-4.056944 -0.661537,-2.293056 c -0.881146,-3.054277 -2.642813,-6.49223 -4.403343,-8.593273 -1.606208,-1.916871 -1.658061,-2.072405 -0.90052,-2.701108 l 0.535784,-0.444661 0.741832,0.666049 c 1.867618,1.676828 4.386896,6.068495 5.658036,9.863227 l 0.818842,2.444488 -0.0036,5.115278 -0.0036,5.11528 -0.820535,2.46944 c -1.995585,6.00582 -5.857954,11.38621 -7.09967,9.89003 z m -4.949054,-5.12447 c 0,-0.38638 0.522817,-1.38743 1.161815,-2.22457 1.5669,-2.05275 2.60821,-4.57968 3.064666,-7.43698 l 0.379049,-2.37276 -0.221682,-1.833677 c -0.441787,-3.654306 -1.682873,-6.839494 -3.511932,-9.013208 l -0.925697,-1.100128 0.119136,-0.618622 c 0.06553,-0.340242 0.382904,-0.669419 0.705287,-0.731504 l 0.586151,-0.112882 1.512863,2.225498 c 0.832074,1.224024 1.891106,3.257373 2.353403,4.518553 l 0.840541,2.293056 0.192444,2.717022 0.192444,2.717022 -0.436074,2.21652 c -0.529844,2.69314 -2.074238,6.19362 -3.560558,8.07025 l -1.100033,1.38891 h -0.675911 -0.675912 z m -18.635354,-1.15092 c -0.451042,-0.21701 -1.127866,-0.99788 -1.504053,-1.73527 l -0.683978,-1.34071 -1.318169,-0.70235 c -1.681471,-0.89594 -2.241095,-1.3733 -2.998715,-2.55792 l -0.61251,-0.95773 v -1.47079 c 0,-0.80893 0.193059,-2.12421 0.429019,-2.92283 l 0.429019,-1.452037 1.775842,-1.76565 1.775843,-1.765649 2.734027,-1.320663 2.734028,-1.320664 v -0.653878 c 0,-0.868407 -1.344082,-2.80604 -2.583508,-3.724393 l -0.996008,-0.737993 h -2.587219 -2.587219 l -1.355662,1.089607 c -0.745614,0.599283 -1.660247,1.710533 -2.032518,2.469444 l -0.676857,1.379838 -0.157507,3.033736 -0.157508,3.033735 0.406306,1.905157 c 0.223469,1.04783 0.887958,2.833 1.476642,3.96705 l 1.070336,2.0619 -0.199728,0.52048 -0.199729,0.52048 -0.795327,-0.11293 -0.795327,-0.11294 -0.971465,-1.81272 c -2.811744,-5.24661 -3.000172,-11.841566 -0.462073,-16.172504 l 0.920923,-1.571436 1.491029,-1.023273 1.49103,-1.023274 1.870964,-0.399417 1.870964,-0.399416 1.656814,0.411645 c 4.858881,1.207217 7.918955,6.61318 6.636286,11.723741 l -0.230414,0.918042 h -0.678015 c -0.861694,0 -1.230678,-0.59834 -1.135916,-1.841988 0.04108,-0.539129 -0.03107,-0.980234 -0.160334,-0.980234 -0.696381,0 -4.203347,2.021944 -5.525441,3.185698 l -1.527796,1.34482 -0.478188,1.448926 -0.478188,1.44892 0.324354,1.3129 0.324355,1.3129 1.855566,0.9944 1.855566,0.99439 0.51746,1.00066 c 1.124444,2.17443 1.93953,2.54877 2.774611,1.27428 l 0.557961,-0.85156 -0.870165,-1.63656 -0.870166,-1.63655 0.02578,-1.48064 0.02578,-1.48064 0.602949,-1.02706 c 0.331622,-0.56488 0.884943,-1.19988 1.229601,-1.41111 l 0.62665,-0.384052 0.483288,0.650302 0.483288,0.6503 -0.67902,1.11359 c -0.813256,1.33373 -0.871925,2.6701 -0.158214,3.6038 0.287894,0.37663 0.68093,1.24312 0.873414,1.92552 l 0.349969,1.24074 -0.280297,1.05232 -0.280298,1.05232 -1.174452,0.79375 c -1.281015,0.86577 -2.21293,0.95994 -3.477688,0.35144 z m 13.824401,-3.26092 -0.202699,-0.52822 1.061435,-1.67664 1.061434,-1.67664 0.443195,-2.02847 0.443196,-2.02847 -0.449548,-2.028472 -0.449548,-2.028472 -1.017701,-1.516991 c -1.144979,-1.706713 -1.264298,-2.369839 -0.480532,-2.670598 l 0.537168,-0.206131 0.733551,0.733551 c 0.403453,0.403454 1.153915,1.630165 1.667693,2.726027 l 0.934142,1.992475 -0.0095,3.175001 -0.0095,3.175 -0.988511,1.94028 c -1.526658,2.99657 -2.758085,3.99199 -3.274292,2.64677 z"
         id="path171" /><path
         style="fill:#a09e9a"
         d="m -77.402714,123.11372 c -3.096689,-1.17979 -4.88012,-3.27322 -6.250067,-7.33646 l -0.810284,-2.40329 -1.727323,-2.14359 c -2.276018,-2.82451 -3.661352,-5.20526 -4.782704,-8.21927 l -0.918749,-2.46945 -0.0034,-4.780792 -0.0034,-4.780797 1.328095,-2.687217 1.328094,-2.687216 1.670517,-1.392218 c 2.228976,-1.857641 4.098697,-2.764895 6.628587,-3.216423 l 2.097485,-0.374353 2.391973,0.506522 c 4.597858,0.97364 7.667832,3.389791 9.070483,7.138711 l 0.708378,1.893309 v 3.136568 3.136568 l -0.577044,0.577044 -0.577044,0.577044 -0.373474,-0.373475 -0.373474,-0.373474 -0.01962,-3.617954 -0.01962,-3.617955 -0.758285,-1.415734 c -1.079792,-2.015995 -2.479361,-3.314399 -4.709771,-4.369334 l -1.940278,-0.91771 h -2.998611 -2.998611 l -1.694868,0.865858 c -2.10827,1.077052 -4.609083,3.709982 -5.624801,5.921957 l -0.770912,1.678852 0.0057,4.409723 0.0057,4.409726 1.168586,2.94616 1.168586,2.94617 2.421888,3.19436 2.421887,3.19437 0.580542,1.62058 c 0.319298,0.89132 0.977364,2.46982 1.46237,3.50778 l 0.881829,1.88721 1.613437,1.02321 1.613437,1.02321 h 2.089103 2.089103 l 1.346727,-1.34673 1.346728,-1.34672 0.257849,-1.02735 0.257848,-1.02736 -0.387797,-2.653 -0.387798,-2.653 0.487902,-0.49887 0.487901,-0.49886 0.516717,0.42884 0.516717,0.42883 0.25134,3.01731 0.251341,3.0173 -0.397424,1.32649 c -0.813226,2.7143 -3.170198,4.49692 -6.330879,4.78814 l -1.651568,0.15218 z m 25.554548,-4.56814 -0.429004,-0.51692 1.590792,-2.04072 c 1.982301,-2.54296 3.56204,-5.64603 4.375321,-8.59442 l 0.624983,-2.26575 -0.01193,-4.05694 -0.01192,-4.056944 -0.661537,-2.293056 c -0.881146,-3.054277 -2.642813,-6.49223 -4.403343,-8.593273 -1.606208,-1.916871 -1.658061,-2.072405 -0.90052,-2.701108 l 0.535784,-0.444661 0.741832,0.666049 c 1.867618,1.676828 4.386896,6.068495 5.658036,9.863227 l 0.818842,2.444488 -0.0036,5.115278 -0.0036,5.11528 -0.820535,2.46944 c -1.995585,6.00582 -5.857954,11.38621 -7.09967,9.89003 z m -4.949054,-5.12447 c 0,-0.38638 0.522817,-1.38743 1.161815,-2.22457 1.5669,-2.05275 2.60821,-4.57968 3.064666,-7.43698 l 0.379049,-2.37276 -0.221682,-1.833677 c -0.441787,-3.654306 -1.682873,-6.839494 -3.511932,-9.013208 l -0.925697,-1.100128 0.119136,-0.618622 c 0.06553,-0.340242 0.382904,-0.669419 0.705287,-0.731504 l 0.586151,-0.112882 1.512863,2.225498 c 0.832074,1.224024 1.891106,3.257373 2.353403,4.518553 l 0.840541,2.293056 0.192444,2.717022 0.192444,2.717022 -0.436074,2.21652 c -0.529844,2.69314 -2.074238,6.19362 -3.560558,8.07025 l -1.100033,1.38891 h -0.675911 -0.675912 z m -18.922887,-1.57651 c -0.404487,-0.28331 -0.933004,-0.99209 -1.17448,-1.57507 l -0.439049,-1.05996 -1.892035,-1.0678 -1.892035,-1.0678 -0.539758,-1.04377 -0.539757,-1.04378 v -1.97185 -1.97185 l 0.690807,-1.354091 c 0.379944,-0.744751 1.399779,-1.978156 2.266301,-2.740899 l 1.575495,-1.386806 2.673373,-1.213797 2.673374,-1.213797 -0.201689,-0.881944 c -0.567735,-2.482598 -2.656227,-4.38929 -5.230673,-4.775352 l -1.498543,-0.22472 -1.458182,0.392647 c -1.931083,0.519987 -3.34694,1.762703 -4.342503,3.811473 l -0.815344,1.677896 0.0079,3.704167 0.0079,3.704163 0.825108,2.11464 c 0.453809,1.16305 1.103758,2.57284 1.44433,3.13287 0.719647,1.18336 0.541095,1.98444 -0.442313,1.98444 h -0.690767 l -1.178987,-2.55764 c -0.648443,-1.4067 -1.374648,-3.55748 -1.613789,-4.77951 l -0.434802,-2.221863 0.189184,-2.760137 0.189184,-2.760138 0.686208,-1.544385 c 0.377414,-0.849411 1.141391,-2.083007 1.697726,-2.741324 l 1.011519,-1.196939 1.778306,-0.828087 1.778305,-0.828087 1.546571,-0.0034 c 0.850614,-0.0019 2.169696,0.183247 2.931293,0.411427 l 1.384722,0.414872 1.505277,1.324999 1.505278,1.324998 0.593153,1.836593 c 0.326235,1.010127 0.6857,2.648123 0.798811,3.639991 l 0.205657,1.803396 -0.385714,0.995808 -0.385714,0.995808 -0.616334,-0.117018 -0.616333,-0.117019 -0.176389,-1.464719 -0.176389,-1.464719 -2.385022,1.140903 c -3.976312,1.902115 -5.552478,3.89139 -5.552478,7.00776 v 1.5314 l 0.440972,0.54062 c 0.242535,0.29734 1.203028,0.97406 2.13443,1.50382 l 1.693457,0.9632 0.581985,1.22043 0.581985,1.22044 0.815945,0.20479 0.815944,0.20479 0.524586,-0.43537 c 0.743334,-0.61691 0.649989,-2.00422 -0.216755,-3.22145 -0.407737,-0.57262 -0.8139,-1.629 -0.902583,-2.34752 l -0.161242,-1.30639 0.670122,-1.21654 c 0.368567,-0.6691 0.92911,-1.3799 1.245651,-1.57957 l 0.575528,-0.36304 0.429462,0.42947 0.429461,0.42946 -0.772529,1.37453 c -0.985037,1.75263 -0.970638,2.25908 0.109415,3.84852 l 0.881944,1.29789 v 1.30216 1.30215 l -0.913304,1.0854 -0.913304,1.0854 h -1.301256 -1.301257 z m 14.111934,-2.83533 -0.202699,-0.52822 1.061435,-1.67664 1.061434,-1.67664 0.443195,-2.02847 0.443196,-2.02847 -0.449548,-2.028472 -0.449548,-2.028472 -1.017701,-1.516991 c -1.144979,-1.706713 -1.264298,-2.369839 -0.480532,-2.670598 l 0.537168,-0.206131 0.733551,0.733551 c 0.403453,0.403454 1.153915,1.630165 1.667693,2.726027 l 0.934142,1.992475 -0.0095,3.175001 -0.0095,3.175 -0.988511,1.94028 c -1.526658,2.99657 -2.758085,3.99199 -3.274292,2.64677 z"
         id="path170" /><path
         style="fill:#8f7341"
         d="m -78.168786,122.6265 c -0.791792,-0.35961 -2.018372,-1.24976 -2.725733,-1.97811 l -1.286113,-1.32427 -0.703522,-1.88033 c -0.386938,-1.03418 -0.79744,-2.25453 -0.912228,-2.71188 -0.114788,-0.45735 -1.163932,-2.09101 -2.331431,-3.63034 -2.825482,-3.72537 -3.666979,-5.20022 -4.738091,-8.30419 l -0.900133,-2.60849 -0.201394,-3.180758 -0.201394,-3.180753 0.401539,-1.872312 c 0.220846,-1.029771 0.825484,-2.738119 1.343639,-3.796329 l 0.942099,-1.924019 1.713152,-1.602452 c 0.942233,-0.881349 2.620894,-2.027912 3.730358,-2.547917 l 2.017206,-0.945465 h 3.175 3.175 l 2.199327,1.015832 2.199327,1.015832 1.541366,1.647845 1.541366,1.647845 0.787683,2.098823 0.787683,2.098824 -0.118654,2.856544 -0.118653,2.856545 -0.496577,0.59799 -0.496576,0.59799 -0.365747,-0.365747 -0.365747,-0.365747 -0.01962,-3.617954 -0.01962,-3.617955 -0.758285,-1.415734 c -1.079792,-2.015995 -2.479361,-3.314399 -4.709771,-4.369334 l -1.940278,-0.91771 h -2.998611 -2.998611 l -1.694868,0.865858 c -2.10827,1.077052 -4.609083,3.709982 -5.624801,5.921957 l -0.770912,1.678852 0.0057,4.409723 0.0057,4.409726 1.168586,2.94616 1.168586,2.94617 2.421888,3.19436 2.421887,3.19437 0.580542,1.62058 c 0.319298,0.89132 0.977364,2.46982 1.46237,3.50778 l 0.881829,1.88721 1.613437,1.02321 1.613437,1.02321 h 2.089103 2.089103 l 1.346727,-1.34673 1.346728,-1.34672 0.257849,-1.02735 0.257848,-1.02736 -0.387797,-2.653 -0.387798,-2.653 0.471754,-0.48272 c 0.785631,-0.80388 1.106509,-0.21383 1.567025,2.88155 l 0.440296,2.95946 -0.390431,1.44995 c -0.488491,1.81412 -1.821804,3.42419 -3.577197,4.31972 l -1.352681,0.69009 -1.866137,-0.008 -1.866137,-0.008 z m 26.310455,-4.47806 c 0,-0.30871 0.543585,-1.19634 1.207967,-1.97252 1.769101,-2.0668 3.652617,-5.86661 4.446355,-8.9701 l 0.695678,-2.72007 -0.0052,-3.38316 -0.0052,-3.383149 -0.526576,-2.233661 c -0.707133,-2.99956 -2.556364,-6.885403 -4.346317,-9.133044 -0.806673,-1.012938 -1.466678,-2.084501 -1.466678,-2.38125 v -0.539545 l 0.617361,0.01336 0.617361,0.01336 1.234722,1.566196 c 1.888204,2.395112 3.438691,5.34814 4.442583,8.461261 l 0.910086,2.822222 0.19305,3.364513 0.19305,3.364517 -0.603799,2.97987 -0.603798,2.97986 -1.199013,2.59511 c -0.659456,1.42731 -1.925116,3.61265 -2.812576,4.85631 l -1.613565,2.26121 h -0.687731 -0.687731 z m -4.808672,-4.54711 -0.200417,-0.52228 1.090756,-1.37719 c 1.427518,-1.80239 2.746318,-4.68522 3.249497,-7.10325 l 0.403762,-1.94028 -0.183343,-2.64583 -0.183343,-2.645836 -0.7418,-2.116667 c -0.40799,-1.164167 -1.377095,-3.021723 -2.153565,-4.127903 -1.484603,-2.115004 -1.644711,-2.565655 -1.043533,-2.937204 0.541362,-0.334579 1.349256,0.455729 2.879811,2.817124 l 1.362438,2.102018 0.758172,2.484093 0.758171,2.484094 0.0091,2.822221 c 0.0194,6.02966 -4.720002,16.05733 -6.005688,12.70689 z m -19.053104,-1.75673 c -0.404487,-0.28331 -0.933004,-0.99209 -1.17448,-1.57507 l -0.439049,-1.05996 -1.892035,-1.0678 -1.892035,-1.0678 -0.539758,-1.04377 -0.539757,-1.04378 v -1.97185 -1.97185 l 0.690807,-1.354091 c 0.379944,-0.744751 1.399779,-1.978156 2.266301,-2.740899 l 1.575495,-1.386806 2.673373,-1.213797 2.673374,-1.213797 -0.201689,-0.881944 c -0.567735,-2.482598 -2.656227,-4.38929 -5.230673,-4.775352 l -1.498543,-0.22472 -1.458182,0.392647 c -1.931083,0.519987 -3.34694,1.762703 -4.342503,3.811473 l -0.815344,1.677896 0.0079,3.704167 0.0079,3.704163 0.825108,2.11464 c 0.453809,1.16305 1.103758,2.57284 1.44433,3.13287 0.719647,1.18336 0.541095,1.98444 -0.442313,1.98444 h -0.690767 l -1.178987,-2.55764 c -0.648443,-1.4067 -1.374648,-3.55748 -1.613789,-4.77951 l -0.434802,-2.221863 0.189184,-2.760137 0.189184,-2.760138 0.686208,-1.544385 c 0.377414,-0.849411 1.141391,-2.083007 1.697726,-2.741324 l 1.011519,-1.196939 1.778306,-0.828087 1.778305,-0.828087 1.546571,-0.0034 c 0.850614,-0.0019 2.169696,0.183247 2.931293,0.411427 l 1.384722,0.414872 1.505277,1.324999 1.505278,1.324998 0.593153,1.836593 c 0.326235,1.010127 0.6857,2.648123 0.798811,3.639991 l 0.205657,1.803396 -0.385714,0.995808 -0.385714,0.995808 -0.616334,-0.117018 -0.616333,-0.117019 -0.176389,-1.464719 -0.176389,-1.464719 -2.385022,1.140903 c -3.976312,1.902115 -5.552478,3.89139 -5.552478,7.00776 v 1.5314 l 0.440972,0.54062 c 0.242535,0.29734 1.203028,0.97406 2.13443,1.50382 l 1.693457,0.9632 0.581985,1.22043 0.581985,1.22044 0.815945,0.20479 0.815944,0.20479 0.524586,-0.43537 c 0.743334,-0.61691 0.649989,-2.00422 -0.216755,-3.22145 -0.407737,-0.57262 -0.8139,-1.629 -0.902583,-2.34752 l -0.161242,-1.30639 0.670122,-1.21654 c 0.368567,-0.6691 0.92911,-1.3799 1.245651,-1.57957 l 0.575528,-0.36304 0.429462,0.42947 0.429461,0.42946 -0.772529,1.37453 c -0.985037,1.75263 -0.970638,2.25908 0.109415,3.84852 l 0.881944,1.29789 v 1.30216 1.30215 l -0.913304,1.0854 -0.913304,1.0854 h -1.301256 -1.301257 z m 14.313881,-2.86386 -0.427259,-0.51481 0.536752,-0.61074 c 1.75147,-1.99292 2.69004,-5.62284 2.236271,-8.64879 l -0.236836,-1.579337 -1.22986,-2.042384 -1.22986,-2.042385 0.339519,-0.339519 c 1.273754,-1.273754 4.267501,4.245863 4.267501,7.868055 0,3.74011 -3.035312,9.38103 -4.256228,7.90991 z"
         id="path169" /><path
         style="fill:#615f61"
         d="m -78.168786,122.6265 c -0.791792,-0.35961 -2.018372,-1.24976 -2.725733,-1.97811 l -1.286113,-1.32427 -0.703522,-1.88033 c -0.386938,-1.03418 -0.79744,-2.25453 -0.912228,-2.71188 -0.114788,-0.45735 -1.163932,-2.09101 -2.331431,-3.63034 -2.825482,-3.72537 -3.666979,-5.20022 -4.738091,-8.30419 l -0.900133,-2.60849 -0.201394,-3.180758 -0.201394,-3.180753 0.401539,-1.872312 c 0.220846,-1.029771 0.825484,-2.738119 1.343639,-3.796329 l 0.942099,-1.924019 1.713152,-1.602452 c 0.942233,-0.881349 2.620894,-2.027912 3.730358,-2.547917 l 2.017206,-0.945465 h 3.175 3.175 l 2.199327,1.015832 2.199327,1.015832 1.541366,1.647845 1.541366,1.647845 0.757224,2.023862 0.757224,2.023863 v 2.433245 c 0,1.338285 -0.154821,2.840455 -0.344047,3.338156 l -0.344046,0.90491 h -0.537898 c -0.295844,0 -0.541904,-0.119063 -0.5468,-0.264584 -0.0049,-0.14552 -0.04458,-1.944447 -0.08819,-3.997614 l -0.07929,-3.733032 -1.068614,-1.735024 -1.068613,-1.735024 -1.698105,-1.141733 c -2.104094,-1.414703 -4.002111,-1.962165 -6.772161,-1.953355 l -2.140825,0.0068 -1.711628,0.757134 c -0.941396,0.416424 -2.391058,1.313876 -3.221472,1.994338 l -1.509844,1.237203 -1.111212,2.257192 -1.111212,2.257192 -0.26772,2.231499 -0.267721,2.231499 0.316292,2.584804 c 0.521673,4.26322 2.535555,8.69541 5.488896,12.08006 1.231824,1.41172 2.232078,3.31905 3.04557,5.80742 0.319164,0.97629 1.083759,2.38586 1.6991,3.13237 l 1.118801,1.3573 1.436067,0.65225 c 1.830173,0.83124 3.173107,0.82457 5.044751,-0.0251 l 1.492018,-0.6773 0.735889,-1.16704 0.735888,-1.16704 -0.223028,-3.61597 -0.223029,-3.61597 h 0.672348 0.672348 l 0.437955,2.94373 0.437955,2.94373 -0.390431,1.44995 c -0.488491,1.81412 -1.821804,3.42419 -3.577197,4.31972 l -1.352681,0.69009 -1.866137,-0.008 -1.866137,-0.008 z m 26.310455,-4.47806 c 0,-0.30871 0.543585,-1.19634 1.207967,-1.97252 1.769101,-2.0668 3.652617,-5.86661 4.446355,-8.9701 l 0.695678,-2.72007 -0.0052,-3.38316 -0.0052,-3.383149 -0.526576,-2.233661 c -0.707133,-2.99956 -2.556364,-6.885403 -4.346317,-9.133044 -0.806673,-1.012938 -1.466678,-2.084501 -1.466678,-2.38125 v -0.539545 l 0.617361,0.01336 0.617361,0.01336 1.234722,1.566196 c 1.888204,2.395112 3.438691,5.34814 4.442583,8.461261 l 0.910086,2.822222 0.19305,3.364513 0.19305,3.364517 -0.603799,2.97987 -0.603798,2.97986 -1.199013,2.59511 c -0.659456,1.42731 -1.925116,3.61265 -2.812576,4.85631 l -1.613565,2.26121 h -0.687731 -0.687731 z m -4.808672,-4.54711 -0.200417,-0.52228 1.090756,-1.37719 c 1.427518,-1.80239 2.746318,-4.68522 3.249497,-7.10325 l 0.403762,-1.94028 -0.183343,-2.64583 -0.183343,-2.645836 -0.7418,-2.116667 c -0.40799,-1.164167 -1.377095,-3.021723 -2.153565,-4.127903 -1.484603,-2.115004 -1.644711,-2.565655 -1.043533,-2.937204 0.541362,-0.334579 1.349256,0.455729 2.879811,2.817124 l 1.362438,2.102018 0.758172,2.484093 0.758171,2.484094 0.0091,2.822221 c 0.0194,6.02966 -4.720002,16.05733 -6.005688,12.70689 z m -18.688902,-1.63289 c -0.408874,-0.20744 -1.005498,-0.92678 -1.325831,-1.59852 l -0.582425,-1.22136 -1.117203,-0.59928 c -0.614462,-0.32961 -1.665461,-1.08538 -2.335554,-1.6795 l -1.218352,-1.08021 -0.176471,-1.83657 -0.176471,-1.83657 0.627604,-1.64336 0.627603,-1.643356 1.446364,-1.440849 1.446365,-1.440849 2.822222,-1.363505 c 1.552222,-0.749927 2.872344,-1.406895 2.933603,-1.459927 0.06126,-0.05303 -0.05474,-0.713333 -0.257768,-1.467334 l -0.369148,-1.370912 -1.153343,-1.112506 c -2.663613,-2.569298 -6.696012,-2.571788 -9.356284,-0.0058 l -1.147383,1.106729 -0.7047,1.883478 -0.7047,1.883479 0.002,2.720794 c 0.0023,3.156119 0.346913,4.636478 1.847713,7.936818 l 1.088558,2.3938 -0.380048,0.38005 -0.380047,0.38004 -0.390225,-0.24117 c -0.523684,-0.32365 -1.890367,-3.09442 -2.70445,-5.48291 l -0.661317,-1.94027 -8.18e-4,-3.571226 -8.18e-4,-3.571218 1.230714,-2.411158 1.230715,-2.411159 1.411111,-0.983501 1.411111,-0.9835 1.980319,-0.393293 1.980319,-0.393294 2.002325,0.582092 2.002325,0.582092 1.377778,1.377777 1.377777,1.377778 0.548607,1.847358 0.548606,1.847359 v 2.42995 2.429951 l -0.79375,-0.11273 -0.79375,-0.112731 0.115783,-1.322916 0.115783,-1.322917 h -0.389173 c -2.185509,0 -7.053399,3.760349 -7.96796,6.155096 l -0.60172,1.57558 0.225404,1.20151 c 0.250839,1.33709 0.766661,1.87909 2.904045,3.05144 l 1.457719,0.79955 0.780864,1.38936 0.780864,1.38936 1.074745,-0.10803 1.074745,-0.10803 0.276148,-0.75285 0.276148,-0.75285 -1.03518,-2.06937 -1.035179,-2.06937 0.217787,-1.05834 c 0.288924,-1.40402 1.493459,-3.35139 2.072984,-3.35139 0.78865,0 0.861038,0.9105 0.157261,1.97805 -0.908019,1.37735 -0.850309,2.36387 0.247905,4.23783 l 0.925363,1.57901 -0.208517,1.28494 c -0.26372,1.62511 -1.172363,2.54071 -2.72163,2.74246 l -1.213634,0.15805 z m 13.949679,-2.9877 -0.427259,-0.51481 0.536752,-0.61074 c 1.75147,-1.99292 2.69004,-5.62284 2.236271,-8.64879 l -0.236836,-1.579337 -1.22986,-2.042384 -1.22986,-2.042385 0.339519,-0.339519 c 1.273754,-1.273754 4.267501,4.245863 4.267501,7.868055 0,3.74011 -3.035312,9.38103 -4.256228,7.90991 z"
         id="path168" /><path
         style="fill:#685338"
         d="m -78.131951,122.58756 c -2.762967,-1.41667 -3.974661,-3.09771 -5.641482,-7.82671 l -0.583621,-1.65581 -1.915215,-2.40113 c -2.310846,-2.89714 -3.708032,-5.4523 -4.785204,-8.75114 l -0.806351,-2.46944 0.0124,-3.880555 0.0124,-3.880556 0.709165,-1.797076 c 1.017022,-2.577211 2.742513,-4.93212 4.640251,-6.332907 l 1.646557,-1.21538 2.242021,-0.70718 c 2.840385,-0.895916 4.668708,-0.8924 7.605316,0.01463 l 2.336934,0.721806 1.810315,1.483055 1.810314,1.483056 0.965663,1.896729 c 1.145121,2.249218 1.516272,4.59502 1.187207,7.503572 l -0.240381,2.124684 -0.495437,0.190117 c -0.786368,0.301758 -0.84234,0.05687 -0.920337,-4.02668 l -0.07384,-3.865734 -1.068614,-1.734955 -1.068613,-1.734955 -1.698105,-1.141733 c -2.104094,-1.414703 -4.002111,-1.962165 -6.772161,-1.953355 l -2.140825,0.0068 -1.711628,0.757134 c -0.941396,0.416424 -2.391058,1.313876 -3.221472,1.994338 l -1.509844,1.237203 -1.111212,2.257192 -1.111212,2.257192 -0.26772,2.231499 -0.267721,2.231499 0.316292,2.584804 c 0.521673,4.263216 2.535555,8.695406 5.488896,12.080056 1.231824,1.41172 2.232078,3.31905 3.04557,5.80742 0.319164,0.97629 1.083759,2.38586 1.6991,3.13237 l 1.118801,1.3573 1.436067,0.65225 c 1.830173,0.83124 3.173107,0.82457 5.044751,-0.0251 l 1.492018,-0.6773 0.735889,-1.16704 0.735888,-1.16704 -0.223028,-3.61597 -0.223029,-3.61597 h 0.678895 0.678895 l 0.290566,2.20486 c 0.159811,1.21267 0.298243,2.83986 0.307626,3.61597 l 0.01706,1.41111 -0.729761,1.41111 -0.729761,1.41112 -1.475145,1.04207 -1.475146,1.04208 -2.197603,0.10994 -2.197603,0.10995 z m 26.27362,-4.26805 c 0,-0.21461 0.455526,-0.96867 1.01228,-1.67569 2.899867,-3.68253 4.628375,-7.6759 5.336852,-12.32973 l 0.446102,-2.93035 -0.232259,-2.008539 c -0.59546,-5.149439 -2.381894,-9.74172 -5.076586,-13.050073 l -1.540302,-1.891075 0.192274,-0.501056 c 0.811602,-2.115003 5.698778,5.397115 7.13302,10.964222 l 0.636198,2.469445 v 3.704166 3.70417 l -0.633225,2.46944 c -1.401314,5.46484 -7.274354,14.40644 -7.274354,11.07507 z m -4.773207,-4.566 -0.228735,-0.3701 0.56484,-0.77643 c 1.929246,-2.65193 2.454195,-3.61049 3.225034,-5.88889 l 0.85929,-2.53984 -0.0042,-2.87663 -0.0042,-2.876623 -0.471176,-1.763889 c -0.575755,-2.155388 -1.747099,-4.510956 -3.095173,-6.224377 -1.182353,-1.502788 -1.2731,-2.065901 -0.332924,-2.065901 h 0.678463 l 1.57744,2.38125 1.57744,2.38125 0.742708,2.41841 0.742707,2.41841 v 3.25597 3.25596 l -0.734257,2.26313 c -1.408249,4.3405 -4.293964,8.30809 -5.097283,7.0083 z m -18.724367,-1.78507 c -0.408874,-0.20744 -1.005498,-0.92678 -1.325831,-1.59852 l -0.582425,-1.22136 -1.117203,-0.59928 c -0.614462,-0.32961 -1.665461,-1.08538 -2.335554,-1.6795 l -1.218352,-1.08021 -0.176471,-1.83657 -0.176471,-1.83657 0.627604,-1.64336 0.627603,-1.643356 1.446364,-1.440849 1.446365,-1.440849 2.822222,-1.363505 c 1.552222,-0.749927 2.872344,-1.406895 2.933603,-1.459927 0.06126,-0.05303 -0.05474,-0.713333 -0.257768,-1.467334 l -0.369148,-1.370912 -1.153343,-1.112506 c -2.663613,-2.569298 -6.696012,-2.571788 -9.356284,-0.0058 l -1.147383,1.106729 -0.7047,1.883478 -0.7047,1.883479 0.002,2.720794 c 0.0023,3.156119 0.346913,4.636478 1.847713,7.936818 l 1.088558,2.3938 -0.380048,0.38005 -0.380047,0.38004 -0.390225,-0.24117 c -0.523684,-0.32365 -1.890367,-3.09442 -2.70445,-5.48291 l -0.661317,-1.94027 -8.18e-4,-3.571226 -8.18e-4,-3.571218 1.230714,-2.411158 1.230715,-2.411159 1.411111,-0.983501 1.411111,-0.9835 1.980319,-0.393293 1.980319,-0.393294 2.002325,0.582092 2.002325,0.582092 1.377778,1.377777 1.377777,1.377778 0.548607,1.847358 0.548606,1.847359 v 2.42995 2.429951 l -0.79375,-0.11273 -0.79375,-0.112731 0.115783,-1.322916 0.115783,-1.322917 h -0.389173 c -2.185509,0 -7.053399,3.760349 -7.96796,6.155096 l -0.60172,1.57558 0.225404,1.20151 c 0.250839,1.33709 0.766661,1.87909 2.904045,3.05144 l 1.457719,0.79955 0.780864,1.38936 0.780864,1.38936 1.074745,-0.10803 1.074745,-0.10803 0.276148,-0.75285 0.276148,-0.75285 -1.03518,-2.06937 -1.035179,-2.06937 0.217787,-1.05834 c 0.288924,-1.40402 1.493459,-3.35139 2.072984,-3.35139 0.78865,0 0.861038,0.9105 0.157261,1.97805 -0.908019,1.37735 -0.850309,2.36387 0.247905,4.23783 l 0.925363,1.57901 -0.208517,1.28494 c -0.26372,1.62511 -1.172363,2.54071 -2.72163,2.74246 l -1.213634,0.15805 z m 13.972573,-3.46846 c 0,-0.3766 0.161019,-0.78425 0.357819,-0.90588 0.649553,-0.40144 1.695666,-2.82369 2.041691,-4.72749 l 0.340424,-1.87297 -0.422404,-2.049755 -0.422404,-2.049755 -0.947563,-1.431864 c -0.521159,-0.787525 -0.947563,-1.673393 -0.947563,-1.968594 0,-1.064654 1.006155,-0.502777 2.039548,1.138964 2.61649,4.156789 2.650582,8.849834 0.09358,12.881814 l -1.059254,1.67027 h -0.536936 -0.536937 z"
         id="path167" /><path
         style="fill:#151731"
         d="m -78.142844,122.46634 -1.766457,-0.8226 -1.055765,-1.20564 c -1.042797,-1.19083 -1.662365,-2.44429 -2.80617,-5.67725 l -0.585818,-1.65581 -1.915215,-2.40113 c -2.318103,-2.90624 -3.714569,-5.46431 -4.777299,-8.75114 l -0.798446,-2.46944 0.0037,-3.880555 0.0037,-3.880556 0.709931,-1.797076 c 5.73169,-14.508858 26.57547,-9.924858 24.19383,5.320749 l -0.27491,1.759784 -0.585372,0.112732 -0.585372,0.112732 0.05286,-3.636405 0.05286,-3.636405 -0.816181,-1.671721 -0.816181,-1.671721 -1.547239,-1.361934 -1.547239,-1.361934 -2.311178,-0.758706 c -5.920035,-1.94341 -11.530995,0.666122 -14.203038,6.605517 l -0.892747,1.984388 -0.01965,3.704167 -0.01965,3.704167 0.798229,2.438987 c 1.115425,3.40818 2.115782,5.25116 4.573738,8.42631 l 2.129929,2.75142 0.599538,1.83469 c 2.584401,7.90877 10.032644,10.11697 12.732948,3.77498 l 0.525722,-1.23472 -0.426291,-2.53572 c -0.457136,-2.7192 -0.321553,-3.63789 0.536889,-3.63789 h 0.540239 v 1.04097 c 0,0.57253 0.168785,1.82799 0.375078,2.7899 l 0.375079,1.74893 -0.407597,1.53163 c -0.224178,0.84239 -0.781645,2.02623 -1.238816,2.63074 l -0.831219,1.09912 -1.601863,0.75297 -1.601862,0.75296 -1.50315,-0.003 -1.50315,-0.003 z m 26.284513,-4.16126 c 0,-0.22255 0.529265,-1.05599 1.176145,-1.85208 2.750552,-3.38502 4.553114,-7.65885 5.209645,-12.35194 l 0.427147,-3.05339 -0.447946,-3.010887 c -0.728772,-4.898472 -2.625155,-9.287873 -5.371579,-12.433147 -0.566554,-0.648832 -0.972234,-1.353285 -0.901512,-1.565452 0.759018,-2.277054 5.723273,5.230517 7.180355,10.859035 l 0.639277,2.469445 -0.01127,3.704166 -0.01127,3.70417 -0.630239,2.46944 c -1.385501,5.42877 -7.258758,14.37823 -7.258758,11.06064 z m -4.773207,-4.55157 -0.228735,-0.3701 0.56484,-0.77643 c 1.929246,-2.65193 2.454195,-3.61049 3.225034,-5.88889 l 0.85929,-2.53984 v -3.08295 -3.082943 l -0.727929,-2.217383 c -0.743101,-2.263597 -1.982913,-4.525557 -3.233175,-5.898723 l -0.698927,-0.767635 0.234168,-0.378893 c 0.50842,-0.82264 1.264007,-0.277258 2.774119,2.002357 l 1.57744,2.38125 0.742708,2.41841 0.742707,2.41841 -0.0042,3.04965 -0.0042,3.04964 -0.504127,1.89408 c -1.166828,4.38394 -4.451237,9.19412 -5.319039,7.78999 z m -18.406796,-1.75196 c -0.428238,-0.1724 -1.171501,-0.93583 -1.651697,-1.6965 l -0.873083,-1.38306 -1.810283,-1.11388 -1.810284,-1.11387 -0.546102,-1.30701 -0.546102,-1.30701 0.196854,-1.66212 c 0.24711,-2.08646 0.863447,-3.279573 2.575915,-4.986492 l 1.350543,-1.346166 2.916565,-1.424893 2.916565,-1.424892 v -0.593775 c 0,-0.326576 -0.357187,-1.301446 -0.79375,-2.166377 l -0.79375,-1.572604 -1.411111,-0.789399 -1.411111,-0.789399 -2.135794,-0.0058 -2.135794,-0.0058 -1.605729,1.018322 -1.605728,1.018323 -0.844589,1.715705 -0.844589,1.715705 -0.123403,3.508445 -0.123404,3.508444 0.420806,1.430453 c 0.231444,0.78674 0.898035,2.43863 1.481314,3.67086 l 1.060507,2.24043 -0.357033,0.35703 c -0.709664,0.70966 -2.290445,-1.87437 -3.415675,-5.58345 l -0.522975,-1.72387 -0.0038,-3.376748 -0.0038,-3.37674 0.548314,-1.609214 c 0.301573,-0.885067 1.126151,-2.284285 1.832396,-3.109374 l 1.284082,-1.50016 1.430799,-0.649889 1.430798,-0.649888 2.218915,-0.0077 2.218916,-0.0077 1.313486,0.67009 c 1.870418,0.954216 3.112602,2.31493 3.844396,4.211228 l 0.634843,1.645071 v 2.638272 2.638272 l -0.617361,0.121623 -0.617361,0.121623 v -1.436979 -1.436978 h -0.540894 c -0.8433,0 -4.06687,1.721709 -5.691573,3.039869 l -1.469967,1.192619 -0.605191,1.584673 -0.605192,1.58467 0.207996,1.28173 c 0.249054,1.53473 1.010612,2.44448 2.818866,3.36736 l 1.345989,0.68696 0.722707,1.2249 c 0.397489,0.67369 0.982419,1.36078 1.299844,1.52687 l 0.577137,0.30198 0.762727,-0.28825 c 0.419499,-0.15854 0.874492,-0.64039 1.011095,-1.07079 l 0.248368,-0.78254 -1.148033,-2.15072 -1.148032,-2.15072 0.797741,-1.85208 0.797741,-1.85209 h 0.662113 c 0.844857,0 0.832339,0.33631 -0.08261,2.21956 l -0.744727,1.53287 1.097505,1.94467 c 1.203116,2.13181 1.294946,2.65581 0.695847,3.97069 l -0.401658,0.88154 -1.150962,0.54617 c -1.296392,0.61518 -1.440718,0.62591 -2.528502,0.188 z m 13.655002,-3.33033 c 0,-0.28243 0.396621,-1.09795 0.881379,-1.81228 2.23416,-3.29222 2.23416,-8.283995 0,-11.576215 -0.979257,-1.443016 -1.130735,-2.325784 -0.399091,-2.325784 0.642765,0 2.126489,2.288248 2.878278,4.438975 l 0.606344,1.734637 0.0053,1.940277 c 0.0068,2.50943 -0.524369,4.37058 -1.839052,6.44362 l -1.059254,1.67027 h -0.536936 -0.536937 z"
         id="path166" /></g></g></svg>
