<?xml version="1.0" encoding="UTF-8" standalone="no"?>
<!-- Created with Inkscape (http://www.inkscape.org/) -->

<svg
   width="90mm"
   height="90mm"
   viewBox="0 0 90 89.999994"
   version="1.1"
   id="svg1"
   xml:space="preserve"
   inkscape:version="1.4.3 (0d15f75, 2025-12-25)"
   sodipodi:docname="speak.svg"
   inkscape:export-filename="speak.png"
   inkscape:export-xdpi="96"
   inkscape:export-ydpi="96"
   xmlns:inkscape="http://www.inkscape.org/namespaces/inkscape"
   xmlns:sodipodi="http://sodipodi.sourceforge.net/DTD/sodipodi-0.dtd"
   xmlns="http://www.w3.org/2000/svg"
   xmlns:svg="http://www.w3.org/2000/svg"><sodipodi:namedview
     id="namedview1"
     pagecolor="#ffffff"
     bordercolor="#000000"
     borderopacity="0.25"
     inkscape:showpageshadow="2"
     inkscape:pageopacity="0.0"
     inkscape:pagecheckerboard="0"
     inkscape:deskcolor="#d1d1d1"
     inkscape:document-units="mm"
     showgrid="true"
     inkscape:zoom="0.44097222"
     inkscape:cx="443.33858"
     inkscape:cy="561.25984"
     inkscape:window-width="1366"
     inkscape:window-height="697"
     inkscape:window-x="-8"
     inkscape:window-y="-8"
     inkscape:window-maximized="1"
     inkscape:current-layer="layer1" /><defs
     id="defs1" /><g
     inkscape:label="Capa 1"
     inkscape:groupmode="layer"
     id="layer1"><g
       id="g120"
       transform="translate(-142.2,-72)"><path
         style="fill:#f3c14c"
         d="m 189.22552,137.00453 -8.34393,-4.19855 -0.78889,1.9437 -0.78889,1.94371 -1.22042,0.93086 -1.22043,0.93086 -1.99398,0.12364 -1.99398,0.12364 -6.87768,-3.17139 c -7.50255,-3.45953 -8.97571,-4.41332 -9.77644,-6.32974 l -0.52988,-1.26817 0.17456,-1.42175 c 0.096,-0.78197 0.28845,-1.69957 0.42765,-2.03912 l 0.25311,-0.61736 -3.30094,-10e-4 -3.30094,-0.001 -1.17052,-0.71365 -1.17053,-0.71365 -0.70777,-1.60003 -0.70777,-1.60004 0.11441,-7.00875 0.11441,-7.00876 0.72735,-0.97319 c 0.40004,-0.53526 1.16515,-1.30051 1.70024,-1.70056 l 0.97289,-0.72735 6.94281,-0.17639 6.94282,-0.17639 9.87778,-5.075064 c 5.43278,-2.791287 13.08081,-6.72035 16.99562,-8.731251 l 7.11784,-3.656184 h 1.4723 1.47229 l 1.19945,1.199445 1.19944,1.199444 v 25.99821 25.99821 l -0.58747,0.99451 c -0.71799,1.21547 -1.84862,1.76627 -3.57427,1.74124 l -1.30631,-0.0189 z M 176.464,135.15556 c 0.39235,-0.43656 0.96465,-1.44417 1.27178,-2.23912 l 0.5584,-1.44537 -7.68333,-3.75811 -7.68334,-3.7581 h -1.61249 -1.61248 l -0.56858,1.71183 -0.56858,1.71184 0.34208,0.89973 c 0.43695,1.14927 0.12798,0.96893 7.79003,4.54692 l 6.53029,3.04947 1.26142,0.0373 1.26142,0.0373 z m 42.87184,-2.45181 c -0.66049,-0.66049 -0.52609,-1.07598 1.01213,-3.12892 1.98017,-2.64279 3.71344,-6.36771 4.60076,-9.88741 l 0.74737,-2.9645 -4e-4,-3.70417 -3.9e-4,-3.70417 -0.76596,-2.96088 c -0.88266,-3.41197 -2.2726,-6.34968 -4.47094,-9.449555 -0.85025,-1.198935 -1.54591,-2.432651 -1.54591,-2.741591 v -0.561708 l 0.88052,-0.401188 0.88051,-0.401188 0.76058,0.673334 c 2.17234,1.923144 5.12105,7.612786 6.36965,12.290486 l 0.75987,2.84674 -0.0106,4.58611 -0.0106,4.58611 -0.75452,2.82222 c -0.85185,3.18628 -3.308,8.34094 -5.16894,10.84792 l -1.24387,1.6757 h -0.80796 c -0.44438,0 -0.99846,-0.1905 -1.23129,-0.42334 z m -5.64445,-5.64444 c -0.64923,-0.64923 -0.51042,-1.43995 0.48648,-2.77133 1.38819,-1.85394 2.50749,-4.21466 3.12115,-6.58284 l 0.55515,-2.1424 v -2.54399 -2.54399 l -0.55619,-2.14643 c -0.62958,-2.4296 -1.53254,-4.34542 -3.04885,-6.46874 l -1.04103,-1.45778 0.11818,-0.83528 0.11817,-0.83528 0.89357,-0.104238 0.89357,-0.104239 0.75728,0.809794 c 0.4165,0.445387 1.30741,1.725263 1.97979,2.844173 l 1.22252,2.03439 0.74261,2.75214 0.7426,2.75214 v 3.33446 3.33445 l -0.7282,2.63874 c -1.54842,5.6109 -4.67122,9.62183 -6.2568,8.03625 z m -5.9132,-5.598 -0.66034,-0.72966 0.58843,-0.94603 c 0.32364,-0.52032 0.93748,-1.58104 1.36408,-2.35715 l 0.77564,-1.41111 0.16736,-2.33134 0.16736,-2.33134 -0.43695,-1.37282 c -0.24032,-0.75506 -0.90562,-2.11758 -1.47843,-3.02782 l -1.04149,-1.655 0.38869,-0.72625 0.38868,-0.72626 h 0.85158 0.85157 l 0.86522,1.14653 c 1.17131,1.55215 1.92809,3.47726 2.30398,5.86093 l 0.31356,1.98837 -0.27996,2.01429 c -0.6751,4.85731 -3.46226,8.44637 -5.12898,6.60466 z"
         id="path126" /><path
         style="fill:#edba4b"
         d="m 189.22552,137.00453 -8.34393,-4.19855 -0.78889,1.9437 -0.78889,1.94371 -1.22042,0.93086 -1.22043,0.93086 -1.99398,0.12364 -1.99398,0.12364 -6.87768,-3.17139 c -7.50255,-3.45953 -8.97571,-4.41332 -9.77644,-6.32974 l -0.52988,-1.26817 0.17456,-1.42175 c 0.096,-0.78197 0.28845,-1.69957 0.42765,-2.03912 l 0.25311,-0.61736 -3.30094,-10e-4 -3.30094,-0.001 -1.17052,-0.71365 -1.17053,-0.71365 -0.70777,-1.60003 -0.70777,-1.60004 0.11441,-7.00875 0.11441,-7.00876 0.72735,-0.97319 c 0.40004,-0.53526 1.16515,-1.30051 1.70024,-1.70056 l 0.97289,-0.72735 6.94281,-0.17639 6.94282,-0.17639 9.87778,-5.075064 c 5.43278,-2.791287 13.08081,-6.72035 16.99562,-8.731251 l 7.11784,-3.656184 h 1.4723 1.47229 l 1.19945,1.199445 1.19944,1.199444 v 25.99821 25.99821 l -0.58747,0.99451 c -0.71799,1.21547 -1.84862,1.76627 -3.57427,1.74124 l -1.30631,-0.0189 z m 9.93143,0.84731 v -0.56691 l 0.52916,0.20306 0.52917,0.20306 v -24.83091 c 0,-13.656998 -0.0964,-25.082016 -0.21413,-25.388927 -0.36398,-0.948524 -0.99728,-0.697073 -10.4933,4.166383 -5.07348,2.598421 -12.63764,6.467819 -16.80924,8.598664 l -7.58472,3.87426 -0.0938,8.77564 -0.0938,8.77565 12.26462,6.05478 c 6.74554,3.33012 13.09878,6.45146 14.11832,6.93629 l 1.8537,0.88151 -0.20417,-0.4099 c -0.11229,-0.22545 0.0457,-0.10175 0.35116,0.27488 0.30543,0.37664 0.55776,0.53539 0.56073,0.35278 l 0.005,-0.33201 0.25919,0.39499 c 0.73157,1.1149 5.02168,2.8549 5.02168,2.03671 z m 0.70555,0.39052 c 0,-0.097 -0.0794,-0.17638 -0.17639,-0.17638 -0.097,0 -0.17638,0.0794 -0.17638,0.17638 0,0.097 0.0794,0.17639 0.17638,0.17639 0.097,0 0.17639,-0.0794 0.17639,-0.17639 z m -23.3985,-3.0868 c 0.39235,-0.43656 0.96465,-1.44417 1.27178,-2.23912 l 0.5584,-1.44537 -7.68333,-3.75811 -7.68334,-3.7581 h -1.61249 -1.61248 l -0.56858,1.71183 -0.56858,1.71184 0.34208,0.89973 c 0.43695,1.14927 0.12798,0.96893 7.79003,4.54692 l 6.53029,3.04947 1.26142,0.0373 1.26142,0.0373 z m -14.7015,-22.13681 v -8.11389 h -5.52847 -5.52847 l -0.64514,0.58384 -0.64514,0.58385 v 6.98087 6.98088 l 0.78405,0.54917 0.78405,0.54917 h 5.38956 5.38956 z m 57.57334,19.685 c -0.66049,-0.66049 -0.52609,-1.07598 1.01213,-3.12892 1.98017,-2.64279 3.71344,-6.36771 4.60076,-9.88741 l 0.74737,-2.9645 -4e-4,-3.70417 -3.9e-4,-3.70417 -0.76596,-2.96088 c -0.88266,-3.41197 -2.2726,-6.34968 -4.47094,-9.449555 -0.85025,-1.198935 -1.54591,-2.432651 -1.54591,-2.741591 v -0.561708 l 0.88052,-0.401188 0.88051,-0.401188 0.76058,0.673334 c 2.17234,1.923144 5.12105,7.612786 6.36965,12.290486 l 0.75987,2.84674 -0.0106,4.58611 -0.0106,4.58611 -0.75452,2.82222 c -0.85185,3.18628 -3.308,8.34094 -5.16894,10.84792 l -1.24387,1.6757 h -0.80796 c -0.44438,0 -0.99846,-0.1905 -1.23129,-0.42334 z m -5.64445,-5.64444 c -0.64923,-0.64923 -0.51042,-1.43995 0.48648,-2.77133 1.38819,-1.85394 2.50749,-4.21466 3.12115,-6.58284 l 0.55515,-2.1424 v -2.54399 -2.54399 l -0.55619,-2.14643 c -0.62958,-2.4296 -1.53254,-4.34542 -3.04885,-6.46874 l -1.04103,-1.45778 0.11818,-0.83528 0.11817,-0.83528 0.89357,-0.104238 0.89357,-0.104239 0.75728,0.809794 c 0.4165,0.445387 1.30741,1.725263 1.97979,2.844173 l 1.22252,2.03439 0.74261,2.75214 0.7426,2.75214 v 3.33446 3.33445 l -0.7282,2.63874 c -1.54842,5.6109 -4.67122,9.62183 -6.2568,8.03625 z m -5.9132,-5.598 -0.66034,-0.72966 0.58843,-0.94603 c 0.32364,-0.52032 0.93748,-1.58104 1.36408,-2.35715 l 0.77564,-1.41111 0.16736,-2.33134 0.16736,-2.33134 -0.43695,-1.37282 c -0.24032,-0.75506 -0.90562,-2.11758 -1.47843,-3.02782 l -1.04149,-1.655 0.38869,-0.72625 0.38868,-0.72626 h 0.85158 0.85157 l 0.86522,1.14653 c 1.17131,1.55215 1.92809,3.47726 2.30398,5.86093 l 0.31356,1.98837 -0.27996,2.01429 c -0.6751,4.85731 -3.46226,8.44637 -5.12898,6.60466 z"
         id="path125" /><path
         style="fill:#9f9d99"
         d="m 189.22552,137.00453 -8.34393,-4.19855 -0.78889,1.9437 -0.78889,1.94371 -1.22042,0.93086 -1.22043,0.93086 -1.99398,0.12364 -1.99398,0.12364 -6.87768,-3.17139 c -7.50255,-3.45953 -8.97571,-4.41332 -9.77644,-6.32974 l -0.52988,-1.26817 0.17456,-1.42175 c 0.096,-0.78197 0.28845,-1.69957 0.42765,-2.03912 l 0.25311,-0.61736 -3.30094,-10e-4 -3.30094,-0.001 -1.17052,-0.71365 -1.17053,-0.71365 -0.70777,-1.60003 -0.70777,-1.60004 0.11441,-7.00875 0.11441,-7.00876 0.72735,-0.97319 c 0.40004,-0.53526 1.16515,-1.30051 1.70024,-1.70056 l 0.97289,-0.72735 6.94281,-0.17639 6.94282,-0.17639 9.87778,-5.075064 c 5.43278,-2.791287 13.08081,-6.72035 16.99562,-8.731251 l 7.11784,-3.656184 h 1.4723 1.47229 l 1.19945,1.199445 1.19944,1.199444 v 25.99821 25.99821 l -0.58747,0.99451 c -0.71799,1.21547 -1.84862,1.76627 -3.57427,1.74124 l -1.30631,-0.0189 z m 10.81337,-24.33856 V 87.089583 l -0.76465,-0.108918 -0.76466,-0.108918 -8.93673,4.584234 c -4.91521,2.521329 -12.50861,6.410571 -16.87424,8.642759 l -7.9375,4.05853 -0.0844,8.75227 -0.0844,8.75227 16.84138,8.35588 16.84137,8.35588 0.88195,-0.0656 0.88194,-0.0656 z M 176.464,135.15556 c 0.39235,-0.43656 0.96465,-1.44417 1.27178,-2.23912 l 0.5584,-1.44537 -7.68333,-3.75811 -7.68334,-3.7581 h -1.61249 -1.61248 l -0.56858,1.71183 -0.56858,1.71184 0.34208,0.89973 c 0.43695,1.14927 0.12798,0.96893 7.79003,4.54692 l 6.53029,3.04947 1.26142,0.0373 1.26142,0.0373 z m -14.7015,-22.33747 v -8.31456 l -5.63281,0.11247 -5.6328,0.11247 -0.629,0.62911 -0.629,0.62912 -0.10883,6.61721 -0.10883,6.61722 0.75179,0.95576 0.7518,0.95575 h 5.61884 5.61884 z m 57.57334,19.88566 c -0.66049,-0.66049 -0.52609,-1.07598 1.01213,-3.12892 1.98017,-2.64279 3.71344,-6.36771 4.60076,-9.88741 l 0.74737,-2.9645 -4e-4,-3.70417 -3.9e-4,-3.70417 -0.76596,-2.96088 c -0.88266,-3.41197 -2.2726,-6.34968 -4.47094,-9.449555 -0.85025,-1.198935 -1.54591,-2.432651 -1.54591,-2.741591 v -0.561708 l 0.88052,-0.401188 0.88051,-0.401188 0.76058,0.673334 c 2.17234,1.923144 5.12105,7.612786 6.36965,12.290486 l 0.75987,2.84674 -0.0106,4.58611 -0.0106,4.58611 -0.75452,2.82222 c -0.85185,3.18628 -3.308,8.34094 -5.16894,10.84792 l -1.24387,1.6757 h -0.80796 c -0.44438,0 -0.99846,-0.1905 -1.23129,-0.42334 z m -5.64445,-5.64444 c -0.64923,-0.64923 -0.51042,-1.43995 0.48648,-2.77133 1.38819,-1.85394 2.50749,-4.21466 3.12115,-6.58284 l 0.55515,-2.1424 v -2.54399 -2.54399 l -0.55619,-2.14643 c -0.62958,-2.4296 -1.53254,-4.34542 -3.04885,-6.46874 l -1.04103,-1.45778 0.11818,-0.83528 0.11817,-0.83528 0.89357,-0.104238 0.89357,-0.104239 0.75728,0.809794 c 0.4165,0.445387 1.30741,1.725263 1.97979,2.844173 l 1.22252,2.03439 0.74261,2.75214 0.7426,2.75214 v 3.33446 3.33445 l -0.7282,2.63874 c -1.54842,5.6109 -4.67122,9.62183 -6.2568,8.03625 z m -5.9132,-5.598 -0.66034,-0.72966 0.58843,-0.94603 c 0.32364,-0.52032 0.93748,-1.58104 1.36408,-2.35715 l 0.77564,-1.41111 0.16736,-2.33134 0.16736,-2.33134 -0.43695,-1.37282 c -0.24032,-0.75506 -0.90562,-2.11758 -1.47843,-3.02782 l -1.04149,-1.655 0.38869,-0.72625 0.38868,-0.72626 h 0.85158 0.85157 l 0.86522,1.14653 c 1.17131,1.55215 1.92809,3.47726 2.30398,5.86093 l 0.31356,1.98837 -0.27996,2.01429 c -0.6751,4.85731 -3.46226,8.44637 -5.12898,6.60466 z"
         id="path124" /><path
         style="fill:#947844"
         d="m 189.49524,136.98377 c -9.90803,-4.94928 -8.49182,-4.56643 -9.38902,-2.53816 -1.28305,2.90054 -3.18078,4.32592 -5.75949,4.32592 h -1.19677 l -7.36942,-3.38866 c -8.06151,-3.7069 -8.6631,-4.10864 -9.52263,-6.3593 l -0.58346,-1.52776 0.21331,-0.97673 c 0.11732,-0.53719 0.31502,-1.3339 0.43934,-1.77047 l 0.22602,-0.79375 h -3.05727 -3.05728 l -0.99879,-0.51649 c -0.54934,-0.28408 -1.41458,-1.01063 -1.92276,-1.61457 l -0.92396,-1.09807 0.001,-7.64585 10e-4,-7.64585 0.68864,-1.1294 c 0.37875,-0.62117 1.20582,-1.39685 1.83794,-1.72373 l 1.1493,-0.59433 6.14425,0.0622 6.14425,0.0622 7.45052,-3.763034 c 4.09779,-2.06967 12.07198,-6.124184 17.72042,-9.010031 l 10.26989,-5.246994 h 0.94832 c 1.39095,0 2.94167,0.922663 3.55984,2.11807 l 0.54184,1.047793 -0.0949,25.962776 -0.0949,25.96278 -1.15209,1.0293 -1.15209,1.02929 -1.31735,-0.0239 -1.31735,-0.0239 z m 10.54365,-24.3178 V 87.089583 l -0.76465,-0.108918 -0.76466,-0.108918 -8.93673,4.584234 c -4.91521,2.521329 -12.50861,6.410571 -16.87424,8.642759 l -7.9375,4.05853 -0.0844,8.75227 -0.0844,8.75227 16.84138,8.35588 16.84137,8.35588 0.88195,-0.0656 0.88194,-0.0656 z m -24.558,23.2444 1.12367,-0.39171 0.64759,-1.28398 c 0.35618,-0.70619 0.75458,-1.63027 0.88534,-2.05351 l 0.23774,-0.76953 -7.64174,-3.72839 -7.64173,-3.72839 h -1.71823 -1.71823 l -0.5339,1.27781 c -0.29364,0.70279 -0.5339,1.70699 -0.5339,2.23156 v 0.95376 l 0.79668,0.74844 c 0.66119,0.62115 14.08777,7.10502 14.7611,7.12832 0.11656,0.004 0.71759,-0.16893 1.33561,-0.38438 z M 161.7625,112.81809 v -8.31456 l -5.63281,0.11247 -5.6328,0.11247 -0.629,0.62911 -0.629,0.62912 -0.10883,6.61721 -0.10883,6.61722 0.75179,0.95576 0.7518,0.95575 h 5.61884 5.61884 z m 57.51981,19.63526 -0.36057,-0.67374 1.22743,-1.70751 c 1.91996,-2.67093 3.97741,-6.89187 4.82421,-9.89709 l 0.7739,-2.74654 0.0148,-4.23333 0.0148,-4.23333 -0.48728,-1.94028 c -0.98875,-3.93704 -2.85928,-7.844123 -5.33034,-11.133812 l -1.07597,-1.43242 0.22872,-0.596052 0.22873,-0.596052 h 1.00276 1.00277 l 1.56317,2.204862 c 2.01455,2.841537 3.09268,5.019164 4.32279,8.731254 l 0.99367,2.99861 0.0176,5.82083 0.0176,5.82083 -0.82327,2.64584 c -0.98442,3.16373 -2.7952,6.8376 -4.73816,9.61319 l -1.41997,2.02848 h -0.81842 -0.81842 z m -5.45989,-5.52507 c -0.76959,-0.7696 -0.72095,-0.97601 0.69417,-2.94575 0.68669,-0.95583 1.67616,-2.74213 2.19883,-3.96957 l 0.95031,-2.23171 v -4.7625 -4.7625 l -0.95031,-2.23171 c -0.52267,-1.22743 -1.51214,-3.01374 -2.19883,-3.96956 -1.61486,-2.247772 -1.53224,-3.500119 0.23092,-3.500119 h 0.63279 l 1.10513,1.499309 c 5.50695,7.47115 5.50695,18.45801 0,25.92917 -1.18561,1.60848 -1.78631,1.82164 -2.66301,0.94494 z m -5.96362,-5.32527 c -0.48449,-0.48449 -0.20175,-1.53561 0.88206,-3.2791 l 1.11725,-1.79728 0.16012,-2.76595 0.16012,-2.76596 -0.4479,-1.36923 c -0.24634,-0.75308 -0.82116,-1.92203 -1.27736,-2.59766 -0.964,-1.42764 -1.04406,-2.21127 -0.28986,-2.83719 l 0.53961,-0.44784 0.8382,0.38191 0.8382,0.3819 1.17983,2.39623 1.17982,2.39622 v 3.53554 3.53554 l -0.98662,2.1071 c -1.41905,3.03065 -2.84434,4.1749 -3.89347,3.12577 z"
         id="path123" /><path
         style="fill:#5e5e62"
         d="m 189.49524,136.98377 c -9.90803,-4.94928 -8.49182,-4.56643 -9.38902,-2.53816 -1.28305,2.90054 -3.18078,4.32592 -5.75949,4.32592 h -1.19677 l -7.36942,-3.38866 c -8.06151,-3.7069 -8.6631,-4.10864 -9.52263,-6.3593 l -0.58346,-1.52776 0.21331,-0.97673 c 0.11732,-0.53719 0.31502,-1.3339 0.43934,-1.77047 l 0.22602,-0.79375 h -3.05727 -3.05728 l -0.99879,-0.51649 c -0.54934,-0.28408 -1.41458,-1.01063 -1.92276,-1.61457 l -0.92396,-1.09807 0.001,-7.64585 10e-4,-7.64585 0.68864,-1.1294 c 0.37875,-0.62117 1.20582,-1.39685 1.83794,-1.72373 l 1.1493,-0.59433 6.14425,0.0622 6.14425,0.0622 7.45052,-3.763034 c 4.09779,-2.06967 12.07198,-6.124184 17.72042,-9.010031 l 10.26989,-5.246994 h 0.94832 c 1.39095,0 2.94167,0.922663 3.55984,2.11807 l 0.54184,1.047793 -0.0949,25.962776 -0.0949,25.96278 -1.15209,1.0293 -1.15209,1.02929 -1.31735,-0.0239 -1.31735,-0.0239 z m 10.36726,1.44253 0.52917,-0.33442 0.095,-25.17572 0.095,-25.175721 -0.6878,-0.622447 -0.68779,-0.622447 -17.30345,8.763686 -17.30346,8.763689 -0.007,8.83103 -0.007,8.83103 17.15214,8.54327 c 9.43367,4.69881 17.25211,8.54085 17.37431,8.53788 0.12219,-0.003 0.46029,-0.15589 0.75133,-0.33983 z m -24.38161,-2.51593 1.12367,-0.39171 0.64759,-1.28398 c 0.35618,-0.70619 0.75458,-1.63027 0.88534,-2.05351 l 0.23774,-0.76953 -7.64174,-3.72839 -7.64173,-3.72839 h -1.71823 -1.71823 l -0.5339,1.27781 c -0.29364,0.70279 -0.5339,1.70699 -0.5339,2.23156 v 0.95376 l 0.79668,0.74844 c 0.66119,0.62115 14.08777,7.10502 14.7611,7.12832 0.11656,0.004 0.71759,-0.16893 1.33561,-0.38438 z m -18.27565,-14.77773 h 4.55726 v -8.29028 -8.29028 h -5.48409 -5.48409 l -0.86591,0.86591 -0.86591,0.86591 v 6.51357 c 0,7.6354 0.63324,9.36272 3.11566,8.4987 0.2584,-0.0899 2.52059,-0.16353 5.02708,-0.16353 z m 62.07707,11.32071 -0.36057,-0.67374 1.22743,-1.70751 c 1.91996,-2.67093 3.97741,-6.89187 4.82421,-9.89709 l 0.7739,-2.74654 0.0148,-4.23333 0.0148,-4.23333 -0.48728,-1.94028 c -0.98875,-3.93704 -2.85928,-7.844123 -5.33034,-11.133812 l -1.07597,-1.43242 0.22872,-0.596052 0.22873,-0.596052 h 1.00276 1.00277 l 1.56317,2.204862 c 2.01455,2.841537 3.09268,5.019164 4.32279,8.731254 l 0.99367,2.99861 0.0176,5.82083 0.0176,5.82083 -0.82327,2.64584 c -0.98442,3.16373 -2.7952,6.8376 -4.73816,9.61319 l -1.41997,2.02848 h -0.81842 -0.81842 z m -5.45989,-5.52507 c -0.76959,-0.7696 -0.72095,-0.97601 0.69417,-2.94575 0.68669,-0.95583 1.67616,-2.74213 2.19883,-3.96957 l 0.95031,-2.23171 v -4.7625 -4.7625 l -0.95031,-2.23171 c -0.52267,-1.22743 -1.51214,-3.01374 -2.19883,-3.96956 -1.61486,-2.247772 -1.53224,-3.500119 0.23092,-3.500119 h 0.63279 l 1.10513,1.499309 c 5.50695,7.47115 5.50695,18.45801 0,25.92917 -1.18561,1.60848 -1.78631,1.82164 -2.66301,0.94494 z m -5.96362,-5.32527 c -0.48449,-0.48449 -0.20175,-1.53561 0.88206,-3.2791 l 1.11725,-1.79728 0.16012,-2.76595 0.16012,-2.76596 -0.4479,-1.36923 c -0.24634,-0.75308 -0.82116,-1.92203 -1.27736,-2.59766 -0.964,-1.42764 -1.04406,-2.21127 -0.28986,-2.83719 l 0.53961,-0.44784 0.8382,0.38191 0.8382,0.3819 1.17983,2.39623 1.17982,2.39622 v 3.53554 3.53554 l -0.98662,2.1071 c -1.41905,3.03065 -2.84434,4.1749 -3.89347,3.12577 z"
         id="path122" /><path
         style="fill:#695339"
         d="m 189.64649,137.00764 c -9.91175,-4.93499 -8.89051,-4.66959 -9.66635,-2.51204 -0.91701,2.55011 -3.23162,4.27593 -5.73473,4.27593 h -0.94531 l -7.39698,-3.4192 -7.39698,-3.41921 -0.96453,-0.96453 -0.96453,-0.96453 -0.42427,-1.52529 -0.42427,-1.5253 0.51783,-1.45946 0.51783,-1.45947 -3.44092,-0.13821 -3.44092,-0.1382 -0.95594,-0.62636 c -0.52576,-0.34449 -1.27005,-1.13367 -1.65398,-1.75371 l -0.69803,-1.12736 0.0975,-7.66777 0.0975,-7.66777 1.32786,-1.32807 1.32786,-1.32806 6.96242,-0.17639 6.96242,-0.17639 10.75972,-5.51569 c 5.91785,-3.033629 13.83186,-7.056695 17.5867,-8.940146 l 6.82698,-3.424457 1.13692,0.213289 1.13693,0.213289 1.03193,1.076981 1.03193,1.076981 0.0949,25.734223 0.0949,25.73423 -0.54188,1.04787 c -0.60606,1.17201 -2.16314,2.11816 -3.48584,2.11816 h -0.87428 z m 10.21601,1.41866 0.52917,-0.33442 0.095,-25.17572 0.095,-25.175721 -0.6878,-0.622447 -0.68779,-0.622447 -17.30345,8.763686 -17.30346,8.763689 -0.007,8.83103 -0.007,8.83103 17.15214,8.54327 c 9.43367,4.69881 17.25211,8.54085 17.37431,8.53788 0.12219,-0.003 0.46029,-0.15589 0.75133,-0.33983 z m -23.35695,-2.91506 c 0.51405,-0.42663 1.83751,-3.18551 1.83751,-3.83048 0,-0.18122 -3.34662,-1.99368 -7.43693,-4.0277 l -7.43692,-3.6982 h -2.03224 -2.03223 l -0.40862,1.36385 c -0.22474,0.75011 -0.40862,1.78957 -0.40862,2.3099 v 0.94605 l 0.85627,0.77691 c 0.47094,0.4273 2.25688,1.40546 3.96875,2.1737 1.71186,0.76823 4.54123,2.05689 6.28748,2.86367 1.74625,0.80678 3.41313,1.56064 3.70417,1.67525 0.72426,0.2852 2.46555,-0.0253 3.10138,-0.55295 z m -19.30031,-14.3786 h 4.55726 v -8.29028 -8.29028 h -5.48409 -5.48409 l -0.86591,0.86591 -0.86591,0.86591 v 6.51357 c 0,7.6354 0.63324,9.36272 3.11566,8.4987 0.2584,-0.0899 2.52059,-0.16353 5.02708,-0.16353 z m 62.50101,11.76081 c -0.81778,-0.32998 -0.44961,-1.40935 1.44754,-4.24371 2.93598,-4.38639 4.356,-8.58435 4.69075,-13.8671 l 0.21236,-3.35139 -0.39956,-2.55229 c -0.69748,-4.45518 -2.77423,-9.377565 -5.21195,-12.353537 l -1.22893,-1.500271 0.11261,-0.792784 0.1126,-0.792785 0.75015,-0.107017 0.75015,-0.107017 1.27096,1.484836 c 1.73217,2.023647 4.21207,6.952685 5.2178,10.370865 l 0.83039,2.82222 -0.0193,5.46806 -0.0193,5.46805 -0.98194,2.99862 c -1.142,3.48735 -3.28229,7.65134 -5.03185,9.78958 -1.18707,1.45079 -1.5672,1.64305 -2.50245,1.26567 z m -5.7535,-6.13723 -0.71043,-0.71043 0.25246,-0.4281 c 0.13885,-0.23546 0.60313,-0.90435 1.03174,-1.48644 4.79867,-6.51698 4.6933,-15.67014 -0.26019,-22.60165 l -1.02549,-1.43498 0.21727,-0.566216 c 0.63738,-1.660963 1.80838,-1.109566 3.67586,1.730866 l 1.53022,2.32747 0.88219,2.68753 0.88219,2.68754 0.0278,3.88055 0.0278,3.88056 -0.8178,2.64583 c -0.44979,1.45521 -1.14313,3.20146 -1.54077,3.88056 -1.41228,2.41193 -2.45434,3.83051 -2.95493,4.0226 l -0.50744,0.19473 z m -6.07775,-5.13701 c -0.49248,-0.49248 -0.23832,-1.60911 0.62342,-2.73891 l 0.8748,-1.14692 0.6132,-2.33795 0.61319,-2.33794 -0.42841,-2.04245 -0.4284,-2.04245 -1.0759,-1.73075 c -1.15523,-1.85838 -1.21493,-2.57135 -0.26539,-3.16931 l 0.60151,-0.37878 0.86222,0.81001 c 0.47422,0.44551 1.27557,1.7311 1.78078,2.85686 l 0.91857,2.04685 0.22493,2.15194 0.22492,2.15195 -0.45322,2.13567 -0.45322,2.13567 -1.0969,1.83955 -1.0969,1.83956 -0.89391,0.10439 c -0.49165,0.0574 -1.00703,-0.009 -1.14529,-0.14699 z"
         id="path121" /><path
         style="fill:#16192d"
         d="m 189.64649,137.00764 c -9.78976,-4.87425 -8.91224,-4.60588 -9.51656,-2.91042 -0.25935,0.72761 -0.79147,1.77798 -1.1825,2.33417 l -0.71096,1.01125 -1.44601,0.6567 c -2.52472,1.14659 -3.40947,0.86675 -15.23845,-4.81972 l -3.92108,-1.88496 -0.54547,-0.83248 c -0.3,-0.45787 -0.70947,-1.42647 -0.90992,-2.15244 l -0.36445,-1.31995 0.47173,-1.56746 0.47174,-1.56747 h -2.88934 -2.88933 l -1.57406,-0.79375 -1.57405,-0.79375 -0.62719,-1.23472 -0.62719,-1.23472 0.098,-7.4914 0.098,-7.4914 1.32786,-1.32805 1.32786,-1.32804 6.96242,-0.17639 6.96242,-0.17639 17.56843,-8.943573 17.56843,-8.943574 1.15519,0.216716 1.1552,0.216716 1.03193,1.076981 1.03193,1.076981 0.0949,25.734223 0.0949,25.73423 -0.55933,1.08164 -0.55934,1.08163 -1.19996,0.50138 c -1.91021,0.79813 -2.14838,0.71795 -11.08586,-3.73196 z m 10.55638,1.08153 0.36519,-0.68237 V 112.66597 87.925143 l -0.36519,-0.682364 c -0.58989,-1.102214 -0.67606,-1.064767 -18.52148,8.048888 l -17.09663,8.731253 -2e-5,8.91095 -2e-5,8.91095 17.02153,8.43269 c 9.36184,4.63797 17.29376,8.44648 17.62648,8.46335 l 0.60495,0.0307 z m -23.72041,-2.55877 c 0.52863,-0.43873 1.8606,-3.18918 1.8606,-3.84207 0,-0.17706 -3.33231,-1.98952 -7.40513,-4.0277 l -7.40513,-3.70577 h -2.049 -2.04901 l -0.42364,1.17158 c -0.23301,0.64436 -0.42365,1.65865 -0.42365,2.25397 v 1.0824 l 0.61736,0.73189 c 0.33955,0.40254 2.52236,1.59019 4.8507,2.63923 2.32833,1.04903 5.42395,2.47996 6.87916,3.17985 l 2.64584,1.27251 1.178,-0.15142 c 0.64791,-0.0833 1.42366,-0.35529 1.7239,-0.60447 z m -14.44899,-22.59984 0.0946,-8.37848 h -5.7607 -5.7607 l -0.77207,0.7193 -0.77208,0.7193 v 7.01621 7.01621 l 0.94053,0.73982 0.94053,0.73982 5.49766,-0.0969 5.49767,-0.0968 z m 57.67278,19.96289 c -0.80126,-0.32332 -0.46018,-1.53508 0.96246,-3.41935 2.97219,-3.93664 4.8183,-9.17994 5.1727,-14.69146 l 0.21549,-3.35139 -0.39956,-2.55229 c -0.69748,-4.45518 -2.77423,-9.377565 -5.21195,-12.353537 l -1.22893,-1.500271 0.11261,-0.792784 0.1126,-0.792785 0.75015,-0.107017 0.75015,-0.107017 1.27096,1.484836 c 1.73471,2.026619 4.2139,6.956875 5.215,10.370865 l 0.82757,2.82222 0.003,5.29167 0.003,5.29167 -1.13158,3.53478 -1.13157,3.53478 -1.79411,2.98512 c -2.52879,4.20751 -3.21354,4.87009 -4.49761,4.35196 z m -5.85023,-5.99877 c -0.47061,-0.47062 -0.21624,-1.60103 0.6073,-2.69877 0.46337,-0.61765 1.25184,-1.94073 1.75216,-2.94019 l 0.90967,-1.8172 0.59698,-3.03834 0.59698,-3.03834 -0.44497,-2.99087 -0.44496,-2.99087 -1.16099,-2.38415 c -0.63854,-1.31128 -1.57479,-2.93092 -2.08056,-3.59921 -1.06942,-1.413065 -1.09487,-1.557848 -0.39661,-2.25611 l 0.52296,-0.522961 0.65407,0.171044 0.65408,0.171044 1.52103,2.313493 1.52103,2.31349 0.88219,2.68753 0.88219,2.68754 0.0278,3.88055 0.0278,3.88056 -0.8178,2.64583 c -0.80374,2.60036 -1.39318,3.80731 -3.14425,6.4382 l -0.88051,1.32291 h -0.77517 c -0.42635,0 -0.88101,-0.10583 -1.01036,-0.23518 z m -5.79555,-5.4663 c -0.63839,-0.63839 -0.54016,-1.26211 0.39752,-2.52414 2.51731,-3.38806 2.53764,-8.18323 0.0506,-11.94137 -1.00801,-1.5232 -1.03827,-2.30396 -0.11191,-2.88731 l 0.59672,-0.37576 0.77591,0.69073 c 0.42675,0.37989 1.22111,1.62544 1.76524,2.76788 l 0.98932,2.07717 0.24286,1.94378 0.24286,1.94379 -0.42715,2.39017 -0.42714,2.39018 -1.12135,1.87915 -1.12135,1.87916 -0.70765,0.10171 c -0.38922,0.0559 -0.90424,-0.0949 -1.14451,-0.33514 z"
         id="path120" /></g></g></svg>
